Simulation
nRows=46
nColumns=15
endheader
time  TH_x TH_y TH_z SC_y  SC_z  SC_x  AC_y  AC_z  AC_x  GH_y  GH_z  GH_yy  EL_x  PS_y
1.549999999999999  0.000000  0.000000  0.000000  -35.32654415968959  7.03143225963402  30.706456888998435  59.43538108658127  3.9133308229149706  -10.668054408642536  -14.752216386573606  48.846514974173026  27.596443216877987  17.92995649583872  0.000000
1.5809999999999989  0.000000  0.000000  0.000000  -35.806518376846476  7.356474268213838  31.09996347138114  59.61252767651967  4.200726998288089  -10.101146606531543  -15.286422633575105  49.22362198486712  27.823963233549346  17.917891412471832  0.000000
1.611999999999999  0.000000  0.000000  0.000000  -36.24362016941149  7.643480610360018  31.390984758699865  59.763364515090785  4.493717814180025  -9.561110779471532  -15.736011072484002  49.55132110227395  28.009890437321104  17.912532271948127  0.000000
1.642999999999999  0.000000  0.000000  0.000000  -36.63456380844278  7.883877229786971  31.594043412466565  59.893359111937684  4.785753979243489  -9.067434515333822  -16.09911876013905  49.82891806383239  28.155877625018725  17.914642167748614  0.000000
1.6739999999999988  0.000000  0.000000  0.000000  -36.98073256955845  8.07539242797779  31.723841852816427  60.00406117254253  5.066785846108012  -8.634802967664136  -16.37280566310069  50.05189554290433  28.265259732585708  17.924303900128614  0.000000
1.7049999999999987  0.000000  0.000000  0.000000  -37.28293205020425  8.219050730334546  31.791441961032923  60.09339023235535  5.324307948285634  -8.27560045905092  -16.55315273877762  50.21248557629478  28.34224305962579  17.940295759026863  0.000000
1.7359999999999989  0.000000  0.000000  0.000000  -37.53636527495316  8.316640615630014  31.802923149569494  60.156598182630944  5.544779899717779  -8.002507191309325  -16.637152185012646  50.30079311342277  28.391025345862243  17.960062930371517  0.000000
1.7669999999999988  0.000000  0.000000  0.000000  -37.72916662944025  8.369891441991179  31.759573987410743  60.18749913434775  5.714025828382451  -7.82792133655021  -16.625320002174586  50.304774437683605  28.41519518779321  17.980548701345253  0.000000
1.7979999999999987  0.000000  0.000000  0.000000  -37.845309676030766  8.380014378769333  31.6593441146796  60.18044775245256  5.818091360472373  -7.761077770998178  -16.523773490708056  50.209972988941885  28.417519934016358  17.99952684437012  0.000000
1.8289999999999988  0.000000  0.000000  0.000000  -37.86982106676091  8.347232212142776  31.500027423982544  60.13259650435186  5.846230519189506  -7.8057443830016275  -16.344480290530463  50.00145931637368  28.399861092679647  18.016092404984906  0.000000
1.8599999999999988  0.000000  0.000000  0.000000  -37.79373317398371  8.269629609876446  31.28355489165265  60.046145160568216  5.79491722617365  -7.960441670296111  -16.103469160859103  49.66896111552289  28.36285460656678  18.03040191136318  0.000000
1.8909999999999987  0.000000  0.000000  0.000000  -37.616415196395366  8.14249968321019  31.018831874316977  59.92893212090102  5.6695933626988735  -8.22108270517243  -15.817460848368995  49.21157469459184  28.305624981747368  18.043158027254016  0.000000
1.9219999999999986  0.000000  0.000000  0.000000  -37.344790697108984  7.959325977839643  30.72003245908185  59.79219192062654  5.481362112062614  -8.583367047694162  -15.499808464500347  48.63792849889121  28.225548869071527  18.055449496533026  0.000000
1.9529999999999987  0.000000  0.000000  0.000000  -36.991716384603194  7.714796885043195  30.398285275895322  59.64544677564737  5.241025215950519  -9.041180628241907  -15.155741991056496  47.96187614917693  28.118328498152678  18.069974114329188  0.000000
1.9839999999999987  0.000000  0.000000  0.000000  -36.57399872318971  7.410231225841313  30.053882039110277  59.490332696826606  4.953649005721662  -9.583200966090798  -14.777577734589512  47.198041512298815  27.978077051767432  18.09182989943641  0.000000
2.014999999999999  0.000000  0.000000  0.000000  -36.109153120852696  7.055819501799283  29.677555387477085  59.31875136471684  4.617081628960886  -10.193227835664263  -14.34512564991911  46.3617026372633  27.797148821891795  18.127209054570148  0.000000
2.0459999999999985  0.000000  0.000000  0.000000  -35.61336562749445  6.6648344998700635  29.256999805313274  59.119368783308595  4.228244712540082  -10.852628409837816  -13.835857018906898  45.47075297621475  27.56738556723141  18.18100149516769  0.000000
2.0769999999999986  0.000000  0.000000  0.000000  -35.1018213236199  6.2462497065463  28.783182829367167  58.88718445035449  3.7913061505124763  -11.54152116424383  -13.239908428038893  44.54374310941485  27.28362350707978  18.254906609871018  0.000000
2.1079999999999988  0.000000  0.000000  0.000000  -34.58976338948561  5.803422347262703  28.25203360438654  58.62755751466606  3.3195182127195135  -12.237607189142855  -12.566950666735885  43.59664478715546  26.94574442587831  18.34735781592527  0.000000
2.1389999999999985  0.000000  0.000000  0.000000  -34.09285121893953  5.338334302509829  27.66045372033772  58.352643708024495  2.8306984122090357  -12.914335579958436  -11.838706970204564  42.64319238077464  26.556654054623404  18.454674348564712  0.000000
2.1699999999999986  0.000000  0.000000  0.000000  -33.625681851087016  4.855747961359113  27.001843362435288  58.07559291648056  2.341267809503813  -13.54115070670443  -11.0761984746645  41.697475377353356  26.11778636990022  18.572139996416084  0.000000
2.2009999999999983  0.000000  0.000000  0.000000  -33.199588275806875  4.363528822022257  26.26568238669497  57.807487466870455  1.8637560332206082  -14.086685237548554  -10.292428173265646  40.77430949712647  25.62602070502826  18.69448889632346  0.000000
2.2319999999999984  0.000000  0.000000  0.000000  -32.82132597178437  3.8702223704401737  25.44107538283049  57.55659681535731  1.4082381978507976  -14.523957449040255  -9.492610682207047  39.885823717724804  25.07471238951798  18.81633926175067  0.000000
2.2629999999999986  0.000000  0.000000  0.000000  -32.49314397652918  3.382554563843643  24.520933172379287  57.32789121614855  0.9851294616940102  -14.834908354417857  -8.676998816919141  39.037327090726684  24.456899922160748  18.932877022006927  0.000000
2.2939999999999983  0.000000  0.000000  0.000000  -32.213554323161354  2.9047130172412823  23.504153495217132  57.122453115420065  0.6065804866311758  -15.012594012024994  -7.8431377704728  38.22557103388937  23.768301297039955  19.04045802655815  0.000000
2.3249999999999984  0.000000  0.000000  0.000000  -31.978217805521062  2.4393109959426185  22.395918974113798  56.937961671874184  0.28540416340335933  -15.060278141715244  -6.987155382197818  37.439760883469255  23.007943401935187  19.136826868685986  0.000000
2.3559999999999985  0.000000  0.000000  0.000000  -31.78077594947614  1.9886492089600685  21.206862462757616  56.77004009393031  0.032475309698316426  -14.9887970099146  -6.105305285545915  36.663935612657525  22.17767795944693  19.221031267915258  0.000000
2.3869999999999982  0.000000  0.000000  0.000000  -31.61373959870174  1.5552992355784045  19.951952851303147  56.61357035507152  -0.14541769886701836  -14.813574141830545  -5.195405366595265  35.87899003727389  21.281558492481594  19.29312434269972  0.000000
2.4179999999999984  0.000000  0.000000  0.000000  -31.469336668411927  1.1420188379652814  18.64921202509077  56.463885760583075  -0.24646919891786231  -14.552220578973243  -4.258526484119523  35.06436637477948  20.326064809928106  19.353971740049566  0.000000
2.4489999999999985  0.000000  0.000000  0.000000  -31.340718018152003  0.7512711227426365  17.318557941663762  56.31792839135533  -0.2732532747013383  -14.222570923976166  -3.3002709215326615  34.199392544263084  19.320941258176397  19.40512966356317  0.000000
2.479999999999998  0.000000  0.000000  0.000000  -31.22301573789046  0.384793655884618  15.980717261486948  56.175013420961605  -0.23138225271970228  -13.841426237757847  -2.3311135703915458  33.26484764805601  18.279953748011373  19.448377951994626  0.000000
2.5109999999999983  0.000000  0.000000  0.000000  -31.113696345772485  0.04363830847184072  14.655957572745073  56.03659226286738  -0.12812844347342434  -13.42380310638973  -1.3650037756710998  32.24489423237742  17.220117412507804  19.485450481107787  0.000000
2.5419999999999985  0.000000  0.000000  0.000000  -31.012183409908914  -0.2712051485521859  13.362775767002942  55.9052567899251  0.02839756216117319  -12.982650946788777  -0.41634661553143637  31.12902916345339  16.159657675001945  19.5178787581139  0.000000
2.572999999999998  0.000000  0.000000  0.000000  -30.918343222377167  -0.558251737490344  12.1171032858729  55.78327175278589  0.22938064014159598  -12.528781838982432  0.5034351472741506  29.913855721864046  15.11518886916625  19.54703606560997  0.000000
2.6039999999999983  0.000000  0.000000  0.000000  -30.830719898026082  -0.8152599316315926  10.932368624028218  55.671476785199005  0.46561458472944195  -12.071452614157455  1.3886156142985064  28.603767776130596  14.099381379224148  19.574148854944028  0.000000
2.634999999999998  0.000000  0.000000  0.000000  -30.746460185342997  -1.0393664965672065  9.819410707412224  55.56892045210136  0.727897457779832  -11.619109152400332  2.2396010569747005  27.21038005611111  13.120144188088595  19.600642079257987  0.000000
2.665999999999998  0.000000  0.000000  0.000000  -30.66297558821882  -1.22820234916851  8.785953971739563  55.47303138544326  1.0076753588476464  -11.179660437105841  3.061930729778487  25.75002459491188  12.181081002739836  19.62848770673067  0.000000
2.6969999999999983  0.000000  0.000000  0.000000  -30.578912377618522  -1.381625825804115  7.834727196569411  55.38033265155891  1.2975322447088717  -10.759644182084031  3.8641653819654946  24.24073655880831  11.282897880511337  19.66057516675339  0.000000
2.727999999999998  0.000000  0.000000  0.000000  -30.494265633197156  -1.50274829606463  6.9639695120754865  55.2878364467306  1.5903862646489897  -10.363824570859062  4.656352432864242  22.69959133530653  10.424652118269796  19.700696056775303  0.000000
2.758999999999998  0.000000  0.000000  0.000000  -30.409912352540196  -1.5965122061403862  6.171258706047255  55.19358676047547  1.8779761836093922  -9.996377073090873  5.448963258965035  21.141326198616472  9.6044813254618  19.753914002017734  0.000000
2.7899999999999983  0.000000  0.000000  0.000000  -30.32702556848274  -1.6674612548402896  5.4551621929506116  55.096560581297126  2.1528849740784204  -9.66105238697552  6.252836742493144  19.577926720003855  8.81955775219052  19.82682857338585  0.000000
2.820999999999998  0.000000  0.000000  0.000000  -30.245825550067188  -1.7184891515626686  4.815290777832912  54.99627480299173  2.41024554525567  -9.360691872253906  7.078966446592606  18.01889289380088  8.066228037061153  19.92697337142961  0.000000
2.851999999999998  0.000000  0.000000  0.000000  -30.165422722016984  -1.750675385504805  4.25215529513486  54.892810865708434  2.6476482335661107  -9.09721778132317  7.938058402503353  16.471555450069275  7.340873169422053  20.062244222186287  0.000000
2.8829999999999982  0.000000  0.000000  0.000000  -30.084208176473243  -1.7636921411360567  3.7663493141076767  54.786771225169986  2.864402535998352  -8.871450704672041  8.839545261885  14.941320022211496  6.640914920133866  20.23958470941388  0.000000
2.913999999999998  0.000000  0.000000  0.000000  -30.001548388815326  -1.7571930589955602  3.3576781863193963  54.678903619722405  3.0609019251830922  -8.683038568418308  9.789950548308118  13.431991051184196  5.965853778826977  20.463929576260135  0.000000
2.944999999999998  0.000000  0.000000  0.000000  -29.917757910431895  -1.7318181020799728  3.0239829788992267  54.57054715214739  3.2380193751267266  -8.530668048080615  10.792235610047126  11.945759851497051  5.317412867064936  20.737118050395893  0.000000
